Coordinates
version=1
nRows=6
nColumns=63
inDegrees=yes

Units are S.I. units (second, meters, Newtons, ...)
If the header above contains a line with 'inDegrees', this indicates whether rotational values are in degrees (yes) or radians (no).

endheader
time	pelvis_tilt	pelvis_list	pelvis_rotation	pelvis_tx	pelvis_ty	pelvis_tz	hip_flexion_r	hip_adduction_r	hip_rotation_r	knee_angle_r	knee_angle_r_beta	ankle_angle_r	subtalar_angle_r	mtp_angle_r	hip_flexion_l	hip_adduction_l	hip_rotation_l	knee_angle_l	knee_angle_l_beta	ankle_angle_l	subtalar_angle_l	mtp_angle_l	L5_S1_Flex_Ext	L5_S1_Lat_Bending	L5_S1_axial_rotation	L4_L5_Flex_Ext	L4_L5_Lat_Bending	L4_L5_axial_rotation	L3_L4_Flex_Ext	L3_L4_Lat_Bending	L3_L4_axial_rotation	L2_L3_Flex_Ext	L2_L3_Lat_Bending	L2_L3_axial_rotation	L1_L2_Flex_Ext	L1_L2_Lat_Bending	L1_L2_axial_rotation	L1_T12_Flex_Ext	L1_T12_Lat_Bending	L1_T12_axial_rotation	Abs_r3	Abs_r2	Abs_r1	Abs_t1	Abs_t2	neck_flexion	neck_bending	neck_rotation	arm_flex_r	arm_add_r	arm_rot_r	elbow_flex_r	pro_sup_r	wrist_flex_r	wrist_dev_r	arm_flex_l	arm_add_l	arm_rot_l	elbow_flex_l	pro_sup_l	wrist_flex_l	wrist_dev_l
      7.50000000	    -56.78193975	     -1.53145577	      2.50495337	     -0.25912521	      1.07287349	     -0.04078079	     87.56161260	     -7.94555567	    -10.74730833	     52.42964837	      0.91506999	     -5.51747497	      1.13674660	      0.00000000	    129.26922678	     -4.35319469	      1.02158322	    102.13290363	      1.78255544	     16.55263255	      3.32859459	      0.00000000	     -0.09074769	      0.25315555	     -0.62959726	     -0.16852753	      0.33669688	     -0.66894709	     -0.14908938	      0.61552241	     -0.66894709	     -0.10371553	      0.61552241	     -0.55089760	     -0.08426830	      0.51623480	     -0.51154777	     -0.05185323	      0.39213795	     -0.47219794	     -0.64820166	      2.86374622	     -3.50163106	      0.00000000	      0.00000000	     -0.00000000	      0.00000000	      0.00000000	     58.07406858	    -10.96696981	     12.37850022	     42.29387731	     23.91603721	      0.00000000	      5.00000014	     55.37104163	    -13.59342775	      9.55779240	     49.77084880	     37.67752637	      0.00000000	      5.00000014
      7.50800000	    -56.89267390	     -0.77246587	      2.08238547	     -0.25926198	      1.07388964	     -0.04040916	     88.48286806	     -7.69810503	     -9.50828540	     55.26348704	      0.96452980	     -5.18841654	     -0.29171417	      0.00000000	    128.50766913	     -4.92499710	      0.35129940	     99.41469345	      1.73511373	     15.64449747	      2.25796903	      0.00000000	     -0.09250530	      0.16912662	     -0.56307523	     -0.17179159	      0.22493840	     -0.59826743	     -0.15197695	      0.41121446	     -0.59826743	     -0.10572430	      0.41121446	     -0.49269082	     -0.08590042	      0.34488300	     -0.45749862	     -0.05285753	      0.26197713	     -0.42230642	     -0.66075609	      1.91319414	     -3.13165548	      0.00000000	      0.00000000	     -0.00000000	      0.00000000	      0.00000000	     58.08890914	    -10.72711302	     12.24975381	     42.23266130	     23.80675559	      0.00000000	      5.00000014	     55.53794823	    -13.85542955	      9.70290711	     49.75558199	     37.71021528	      0.00000000	      5.00000014
      7.51700000	    -56.96944288	     -0.65693932	      1.40879107	     -0.25929702	      1.07464514	     -0.04020801	     89.30476709	     -7.17734309	     -8.91867417	     58.12495314	      1.01447181	     -4.42785938	     -0.90200257	      0.00000000	    127.70375357	     -5.28506764	      0.57416169	     96.61459559	      1.68624280	     14.99266193	      2.22362580	      0.00000000	     -0.09380719	      0.17590981	     -0.44231511	     -0.17420933	      0.23396005	     -0.46995981	     -0.15411583	      0.42770711	     -0.46995981	     -0.10721224	      0.42770711	     -0.38702572	     -0.08710936	      0.35871528	     -0.35938103	     -0.05360143	      0.27248429	     -0.33173633	     -0.67005538	      1.98992693	     -2.46002396	      0.00000000	      0.00000000	     -0.00000000	      0.00000000	      0.00000000	     58.23516103	    -10.76682937	     12.39218174	     42.19394643	     23.86866307	      0.00000000	      5.00000014	     55.49885456	    -13.78224834	      9.53073721	     49.70970378	     37.72102238	      0.00000000	      5.00000014
      7.52500000	    -57.03805044	     -0.74811383	      0.49879472	     -0.25931474	      1.07512420	     -0.03972283	     90.23227414	     -6.36679060	     -8.39671311	     61.10979610	      1.06656715	     -3.70092830	     -1.20933980	      0.00000000	    126.78201383	     -5.72282128	      1.15694305	     93.74891551	      1.63622725	     14.37677422	      2.11255243	      0.00000000	     -0.09284863	      0.21116246	     -0.27357885	     -0.17242919	      0.28084607	     -0.29067753	     -0.15254101	      0.51342041	     -0.29067753	     -0.10611670	      0.51342041	     -0.23938149	     -0.08621924	      0.43060249	     -0.22228281	     -0.05305371	      0.32709065	     -0.20518414	     -0.66320846	      2.38871199	     -1.52156349	      0.00000000	      0.00000000	     -0.00000000	      0.00000000	      0.00000000	     58.37642553	    -10.88049763	     12.42015710	     42.21678758	     24.29234487	      0.00000000	      5.00000014	     55.36070286	    -13.68834852	      9.47288451	     49.79703885	     37.83638510	      0.00000000	      5.00000014
      7.53300000	    -57.05312251	     -0.79359021	     -0.31134880	     -0.25931502	      1.07538858	     -0.03925682	     91.29598321	     -5.61608494	     -7.74376624	     64.34969767	      1.12311410	     -2.76500239	     -1.65487033	      0.00000000	    125.62704367	     -6.11961655	      1.67696011	     90.76329604	      1.58411836	     13.56181104	      2.15520594	      0.00000000	     -0.09480154	      0.24049224	     -0.12421876	     -0.17605594	      0.31985468	     -0.13198243	     -0.15574945	      0.58473284	     -0.13198243	     -0.10834868	      0.58473284	     -0.10869142	     -0.08803271	      0.49041178	     -0.10092774	     -0.05416960	      0.37252248	     -0.09316407	     -0.67715793	      2.72049634	     -0.69086749	      0.00000000	      0.00000000	     -0.00000000	      0.00000000	      0.00000000	     58.52908057	    -10.96596374	     12.60323094	     42.19342868	     24.41881551	      0.00000000	      5.00000014	     55.27047437	    -13.57611157	      9.33092732	     49.68856844	     37.85501056	      0.00000000	      5.00000014
      7.54200000	    -57.04362508	     -0.54845925	     -0.80748627	     -0.25937837	      1.07548856	     -0.03895984	     92.57387835	     -5.19379882	     -6.81946521	     67.84621405	      1.18413982	     -1.51421757	     -2.12807035	      0.00000000	    124.15250084	     -6.45877801	      1.72358594	     87.56341419	      1.52826988	     12.61900310	      2.17875683	      0.00000000	     -0.09606013	      0.23084527	     -0.04093754	     -0.17839327	      0.30702420	     -0.04349614	     -0.15781719	      0.56127718	     -0.04349614	     -0.10978713	      0.56127718	     -0.03582035	     -0.08920144	      0.47073967	     -0.03326175	     -0.05488876	      0.35757932	     -0.03070316	     -0.68614792	      2.61136782	     -0.22768233	      0.00000000	      0.00000000	     -0.00000000	      0.00000000	      0.00000000	     58.62558390	    -10.99726766	     13.08115082	     42.24462516	     24.42340981	      0.00000000	      5.00000014	     55.30140769	    -13.54769783	      9.08990723	     49.36334360	     37.81895599	      0.00000000	      5.00000014
